<?xml version="1.0" encoding="UTF-8"?>
<!-- Created with Inkscape (http://www.inkscape.org/) -->
<svg version="1.1" viewBox="0 0 800 400" xmlns="http://www.w3.org/2000/svg">
 <defs>
  <clipPath id="clipPath1781-7">
   <path transform="translate(-.0025 2.5e-5)" d="m0 1559.1h1559.1v-1559.1h-1559.1z"/>
  </clipPath>
  <clipPath id="clipPath1463-1-8">
   <path transform="translate(-.00025 2.5e-5)" d="m0 1559.1h1559.1v-1559.1h-1559.1z"/>
  </clipPath>
  <clipPath id="clipPath1463-1-8-5-9">
   <path transform="translate(-.00025 2.5e-5)" d="m0 1559.1h1559.1v-1559.1h-1559.1z"/>
  </clipPath>
 </defs>
 <g>
  <path transform="matrix(.35278 0 0 -.35278 -1629.7 -598.05)" d="m514.44 754.53h99.77v99.771h-99.77zm0-249.43h99.77v99.77h-99.77zm0 249.43h99.77v99.771h-99.77zm0-249.43h99.77v99.77h-99.77zm0 249.43h99.77v99.771h-99.77zm0-249.43h99.77v99.77h-99.77zm199.53 299.32c0 14.96 9.98 24.93 24.95 24.93h74.82v-49.879h-74.82c-14.97 0-24.95 9.969-24.95 24.949m485.22-194.28v-13.241c0.13-24.89-12.75-48.05-33.97-61.07-48.629-30.1-158.98-80.609-351.48-80.609v-0.5h-74.82c-14.97 0-24.95 8.019-24.95 20.059 0 12.05 9.98 20.08 24.95 20.08h74.82v-0.45c182.88 0.01 285.78 46.84 330.87 74.76 9.59 5.94 15.4 16.45 15.32 27.73v13.241c0.03 0.5 0.071 1 0.071 1.509 0.3 12.88-9.901 23.571-22.781 23.87h-323.71v39.19h308.51v58.16c-0.279 88.57-38.519 172.78-105.04 231.28v-91.88c0-10.81-8.77-19.58-19.58-19.58-10.84 0-19.61 8.77-19.61 19.58v121.28c-16.81 10.759-34.629 19.819-53.22 27.059v-211.66c0-10.809-8.769-19.58-19.599-19.58-10.821 0-19.59 8.771-19.59 19.58v233.1c0 39.549-32.071 71.639-71.64 71.659v-0.02h-74.82c-14.97 0-24.95 7.72-24.95 19.31 0 11.6 9.98 19.32 24.95 19.32h74.59v0.651c52.389 0.139 99.04-37.081 109-90.42 142.15-47.16 238.28-179.89 238.72-329.68v-63.05c23.521-10.42 38.48-33.96 37.96-59.679m-537.59 503.56-99.77-149.65c-4.989-4.991-12.47-9.981-22.449-9.981-7.481 0-12.471 2.49-17.46 7.481l-49.891 49.889c-9.97 9.97-9.97 24.94 0 34.92 9.981 9.97 24.95 9.97 34.921 0l27.439-27.44 82.311 124.71c9.979 9.98 24.939 12.47 37.409 4.99 12.481-7.48 14.97-22.45 7.49-34.92m2.491-359.17c0-27.44-22.451-49.889-49.881-49.889h-99.77c-27.44 0-49.889 22.449-49.889 49.889v99.771c0 27.439 22.449 49.879 49.889 49.879h99.77c27.43 0 49.881-22.44 49.881-49.879zm0-249.43c0-27.44-22.451-49.879-49.881-49.879h-99.77c-27.44 0-49.889 22.439-49.889 49.879v99.77c0 27.44 22.449 49.89 49.889 49.89h99.77c27.43 0 49.881-22.45 49.881-49.89zm115.88 884.5c-337.83 0-611.7-273.87-611.7-611.71 0-337.83 273.87-611.7 611.7-611.7 337.84 0 611.71 273.87 611.71 611.7 0 337.84-273.87 611.71-611.71 611.71m-265.53-884.5h99.77v99.77h-99.77zm0 249.43h99.77v99.771h-99.77zm0-249.43h99.77v99.77h-99.77zm0 249.43h99.77v99.771h-99.77zm0 0h99.77v99.771h-99.77zm0 0h99.77v99.771h-99.77z" clip-path="url(#clipPath1781-7)" fill="#d7b393"/>
  <path transform="matrix(.35278 0 0 -.35278 -1243.6 -881.09)" d="m514.44 756.74h99.77v99.771h-99.77zm0-249.43h99.77v99.77h-99.77zm0 249.43h99.77v99.771h-99.77zm0-249.43h99.77v99.77h-99.77zm0 249.43h99.77v99.771h-99.77zm0-249.43h99.77v99.77h-99.77zm199.53 299.32c0 14.96 9.98 24.931 24.95 24.931h74.82v-49.88h-74.82c-14.97 0-24.95 9.97-24.95 24.949m485.22-194.28v-13.24c0.13-24.891-12.75-48.05-33.97-61.07-48.629-30.1-158.98-80.61-351.48-80.61v-0.5h-74.82c-14.97 0-24.95 8.02-24.95 20.06 0 12.05 9.98 20.08 24.95 20.08h74.82v-0.45c182.88 9e-3 285.78 46.839 330.87 74.759 9.59 5.941 15.4 16.451 15.32 27.731v13.24c0.03 0.5 0.071 1 0.071 1.51 0.3 12.88-9.901 23.57-22.781 23.87h-323.71v39.189h308.51v58.161c-0.279 88.57-38.519 172.78-105.04 231.28v-91.88c0-10.811-8.77-19.58-19.58-19.58-10.84 0-19.61 8.769-19.61 19.58v121.28c-16.81 10.76-34.629 19.82-53.22 27.06v-211.66c0-10.81-8.769-19.58-19.599-19.58-10.821 0-19.59 8.77-19.59 19.58v233.1c0 39.55-32.071 71.64-71.64 71.659v-0.019h-74.82c-14.97 0-24.95 7.72-24.95 19.309 0 11.601 9.98 19.321 24.95 19.321h74.59v0.65c52.389 0.14 99.04-37.08 109-90.42 142.15-47.16 238.28-179.89 238.72-329.68v-63.05c23.521-10.42 38.48-33.96 37.96-59.68m-537.59 503.56-99.77-149.65c-4.989-4.99-12.47-9.98-22.449-9.98-7.481 0-12.471 2.49-17.46 7.48l-49.891 49.89c-9.97 9.97-9.97 24.939 0 34.92 9.981 9.97 24.95 9.97 34.921 0l27.439-27.441 82.311 124.71c9.979 9.981 24.939 12.471 37.409 4.991 12.481-7.48 14.97-22.451 7.49-34.92m2.491-359.17c0-27.441-22.451-49.89-49.881-49.89h-99.77c-27.44 0-49.889 22.449-49.889 49.89v99.77c0 27.44 22.449 49.879 49.889 49.879h99.77c27.43 0 49.881-22.439 49.881-49.879zm0-249.43c0-27.44-22.451-49.88-49.881-49.88h-99.77c-27.44 0-49.889 22.44-49.889 49.88v99.77c0 27.44 22.449 49.889 49.889 49.889h99.77c27.43 0 49.881-22.449 49.881-49.889zm115.88 884.5c-337.83 0-611.7-273.87-611.7-611.71 0-337.83 273.87-611.7 611.7-611.7 337.84 0 611.71 273.87 611.71 611.7 0 337.84-273.87 611.71-611.71 611.71m-265.53-884.5h99.77v99.77h-99.77zm0 249.43h99.77v99.771h-99.77zm0-249.43h99.77v99.77h-99.77zm0 249.43h99.77v99.771h-99.77zm0 0h99.77v99.771h-99.77zm0 0h99.77v99.771h-99.77z" clip-path="url(#clipPath1463-1-8)" fill="#ac6b55"/>
  <path d="m0 0v400h400v-400h-400zm200 50c82.844 0 150 67.157 150 150 0 82.841-67.157 150-150 150-82.842 0-150-67.157-150-150 0-82.844 67.157-150 150-150zm8.2243 58.025v0.15968h-18.29c-3.6709 0-6.1185 1.8929-6.1185 4.7377 0 2.8418 2.4476 4.7346 6.1185 4.7346h18.347v-0.00465c9.703 0.00466 17.567 7.8738 17.567 17.572v57.16c0 2.6508 2.1504 4.8013 4.8038 4.8013 2.6557 0 4.8059-2.1505 4.8059-4.8013v-51.902c4.5588 1.7754 8.9283 3.9967 13.05 6.6353v29.74c0 2.651 2.1509 4.8013 4.809 4.8013 2.6508 0 4.8013-2.1502 4.8013-4.8013v-22.531c16.312 14.345 25.689 34.995 25.758 56.714v14.262h-75.652v9.6098h79.379c3.1584 0.07357 5.6598 2.695 5.5862 5.8534 0 0.12506-0.0097 0.2474-0.01706 0.37001v3.2468c0.01962 2.766-1.4052 5.3433-3.7569 6.8001-11.057 6.8464-36.29 18.33-81.135 18.332v-0.11059h-18.347c-3.6709 0-6.1185 1.9689-6.1185 4.9237 0 2.9524 2.4476 4.9191 6.1185 4.9191h18.347v-0.12247c47.204 0 74.264-12.386 86.189-19.767 5.2035-3.1927 8.3621-8.8716 8.3302-14.975v-3.2468c0.12751-6.307-3.5407-12.079-9.3085-14.634v-15.461c-0.1079-36.731-23.681-69.279-58.538-80.843-2.4424-13.08-13.882-22.207-26.729-22.172zm-42.689 0.00258c-2.0364-0.05381-4.0429 0.75854-5.5723 2.2882l-20.184 30.581-6.7283-6.7288c-2.445-2.4448-6.1158-2.4448-8.5633 0-2.4448 2.4475-2.4448 6.118 0 8.5628l12.234 12.234c1.2234 1.2236 2.4469 1.8345 4.2814 1.8345 2.447 0 4.2817-1.2238 5.5051-2.4474l24.465-36.696c1.8342-3.0576 1.224-6.7291-1.8366-8.5633-1.1467-0.68783-2.3795-1.0317-3.6013-1.064zm-30.648 61.005c-6.7287 0-12.233 5.5026-12.233 12.231v24.465c0 6.729 5.5046 12.234 12.233 12.234h24.465c6.7263 0 12.232-5.5049 12.232-12.234v-24.465c0-6.7287-5.5055-12.231-12.232-12.231h-24.465zm0 12.231h24.465v24.466h-24.465v-24.466zm55.047 6.1185c-3.6709 0-6.1185 2.4449-6.1185 6.1133 0 3.6731 2.4476 6.118 6.1185 6.118h18.347v-12.231h-18.347zm-55.047 42.812c-6.7287 0-12.233 5.5052-12.233 12.234v24.465c0 6.7287 5.5046 12.231 12.233 12.231h24.465c6.7263 0 12.232-5.5026 12.232-12.231v-24.465c0-6.7287-5.5055-12.234-12.232-12.234h-24.465zm0 12.234h24.465v24.465h-24.465v-24.465z" fill="#ac6b55" stroke-width="0"/>
  <path transform="matrix(.24522 0 0 -.24522 408.74 391.3)" d="m514.44 756.74h99.77v99.771h-99.77zm0-249.43h99.77v99.77h-99.77zm0 249.43h99.77v99.771h-99.77zm0-249.43h99.77v99.77h-99.77zm0 249.43h99.77v99.771h-99.77zm0-249.43h99.77v99.77h-99.77zm199.53 299.32c0 14.96 9.98 24.931 24.95 24.931h74.82v-49.88h-74.82c-14.97 0-24.95 9.97-24.95 24.949m485.22-194.28v-13.24c0.13-24.891-12.75-48.05-33.97-61.07-48.629-30.1-158.98-80.61-351.48-80.61v-0.5h-74.82c-14.97 0-24.95 8.02-24.95 20.06 0 12.05 9.98 20.08 24.95 20.08h74.82v-0.45c182.88 9e-3 285.78 46.839 330.87 74.759 9.59 5.941 15.4 16.451 15.32 27.731v13.24c0.03 0.5 0.071 1 0.071 1.51 0.3 12.88-9.901 23.57-22.781 23.87h-323.71v39.189h308.51v58.161c-0.279 88.57-38.519 172.78-105.04 231.28v-91.88c0-10.811-8.77-19.58-19.58-19.58-10.84 0-19.61 8.769-19.61 19.58v121.28c-16.81 10.76-34.629 19.82-53.22 27.06v-211.66c0-10.81-8.769-19.58-19.599-19.58-10.821 0-19.59 8.77-19.59 19.58v233.1c0 39.55-32.071 71.64-71.64 71.659v-0.019h-74.82c-14.97 0-24.95 7.72-24.95 19.309 0 11.601 9.98 19.321 24.95 19.321h74.59v0.65c52.389 0.14 99.04-37.08 109-90.42 142.15-47.16 238.28-179.89 238.72-329.68v-63.05c23.521-10.42 38.48-33.96 37.96-59.68m-537.59 503.56-99.77-149.65c-4.989-4.99-12.47-9.98-22.449-9.98-7.481 0-12.471 2.49-17.46 7.48l-49.891 49.89c-9.97 9.97-9.97 24.939 0 34.92 9.981 9.97 24.95 9.97 34.921 0l27.439-27.441 82.311 124.71c9.979 9.981 24.939 12.471 37.409 4.991 12.481-7.48 14.97-22.451 7.49-34.92m2.491-359.17c0-27.441-22.451-49.89-49.881-49.89h-99.77c-27.44 0-49.889 22.449-49.889 49.89v99.77c0 27.44 22.449 49.879 49.889 49.879h99.77c27.43 0 49.881-22.439 49.881-49.879zm0-249.43c0-27.44-22.451-49.88-49.881-49.88h-99.77c-27.44 0-49.889 22.44-49.889 49.88v99.77c0 27.44 22.449 49.889 49.889 49.889h99.77c27.43 0 49.881-22.449 49.881-49.889zm115.88 884.5c-337.83 0-611.7-273.87-611.7-611.71 0-337.83 273.87-611.7 611.7-611.7 337.84 0 611.71 273.87 611.71 611.7 0 337.84-273.87 611.71-611.71 611.71m-265.53-884.5h99.77v99.77h-99.77zm0 249.43h99.77v99.771h-99.77zm0-249.43h99.77v99.77h-99.77zm0 249.43h99.77v99.771h-99.77zm0 0h99.77v99.771h-99.77zm0 0h99.77v99.771h-99.77z" clip-path="url(#clipPath1463-1-8-5-9)" fill="#d7b393"/>
 </g>
</svg>
