<?xml version="1.0" encoding="UTF-8"?>
<!-- Created with Inkscape (http://www.inkscape.org/) -->
<svg version="1.1" viewBox="0 0 800 106" xmlns="http://www.w3.org/2000/svg">
 <defs>
  <clipPath id="clipPath76">
   <path transform="translate(-1453.6 -928.01)" d="m0 1559.1h1559.1v-1559.1h-1559.1z"/>
  </clipPath>
 </defs>
 <path transform="matrix(.83355 0 0 -.83656 755.33 57.566)" d="m0 0c-5.293 0-10.256-1.323-14.557-3.639-4.3-2.316-8.601-5.294-12.571-8.933-3.971-3.639-6.287-5.955-6.948-6.948l29.444 73.115 22.166-59.55v-0.331c-0.33 0-1.985 0.993-4.632 2.647-3.969 2.316-8.27 3.639-12.902 3.639m-8.602 66.828-41.023-102.56c-2.978-2.647-6.286-5.294-9.594-7.61s-7.279-4.3-10.918-5.624c-3.639-1.323-7.94-1.984-12.24-1.984-5.956 0-12.241 0.992-18.196 3.308-5.955 2.646-11.579 6.286-16.542 11.248-4.963 4.963-9.263 11.248-12.241 18.858-2.977 7.94-4.631 16.872-4.631 27.458 0 10.587 1.985 19.52 5.624 27.46 3.97 7.94 8.932 13.895 15.218 18.196 6.286 4.3 13.233 6.616 20.843 6.616 8.27 0 15.88-1.984 23.158-6.285 6.947-4.302 13.233-10.918 18.526-19.519l13.234 8.601c-6.617 7.61-13.895 13.564-22.497 17.535-8.27 4.3-17.534 6.285-27.459 6.285-11.91 0-22.496-2.977-32.091-8.601-9.594-5.625-17.534-13.234-23.158-22.828s-8.602-20.181-8.602-31.76 2.978-22.166 8.602-31.76 13.564-17.204 23.158-22.828c9.595-5.955 20.181-8.932 32.091-8.932 6.617 0 12.571 0.992 18.196 2.646 5.293 1.986 10.255 4.302 14.557 6.948 4.631 2.978 8.601 5.955 12.571 9.594 3.64 3.309 7.279 6.617 10.587 10.256 3.308 3.308 6.617 6.617 9.925 9.594 3.639 2.978 6.947 5.294 10.255 6.948 3.309 1.985 6.948 2.647 10.918 2.647 3.64 0 7.278-0.993 10.587-2.978 3.308-2.316 6.617-5.293 9.264-8.602 2.977-3.639 5.623-7.609 7.939-11.91l8.271-23.158h17.865l-45.324 122.74zm-243.16-26.136c0 4.301 1.323 8.271 4.301 11.579 2.977 2.978 6.947 5.625 11.248 7.279 4.632 1.654 9.263 2.316 13.895 2.316 6.616 0 12.903-0.993 18.527-3.64 5.624-2.315 10.586-5.623 14.887-9.593 3.97-3.64 7.279-8.271 9.926-13.565l13.563 9.594c-6.286 7.941-13.895 13.895-23.489 17.866-9.925 3.97-18.857 6.285-27.79 6.285-10.256 0-18.857-1.654-25.805-4.963-7.278-2.977-12.902-7.278-16.873-12.241-3.969-5.292-5.954-10.917-5.954-16.871 0-5.294 1.654-9.926 4.301-13.565 2.977-3.97 6.616-6.947 11.248-9.594 4.632-2.977 9.594-4.963 15.218-6.947 5.624-1.986 11.249-3.64 17.204-5.625 5.293-1.323 10.255-2.977 15.218-4.632 4.632-1.654 8.932-3.638 12.902-5.624 3.639-1.985 6.617-4.301 8.933-7.278 1.985-2.647 2.977-5.955 2.977-9.594 0-4.301-1.653-8.271-4.631-11.579-3.309-3.309-7.94-6.286-13.233-8.271-5.294-2.316-11.249-3.309-17.535-3.309-8.271 0-15.88 2.316-23.158 6.286-7.279 4.301-13.564 11.249-18.858 20.843l-13.233-9.925c5.955-7.609 14.226-13.564 24.151-17.534 10.256-4.301 19.85-6.286 28.451-6.286 9.926 0 18.858 1.654 26.798 4.632 7.609 2.977 13.895 6.947 18.527 12.24 4.3 4.963 6.616 10.918 6.616 16.873 0 5.624-1.323 9.925-4.3 13.895-2.647 3.639-6.287 6.947-10.587 9.263-4.632 2.647-9.595 4.963-15.219 6.948-5.293 1.985-10.917 3.639-16.872 5.293-5.294 1.654-10.587 3.308-15.549 4.963-4.962 1.654-9.263 3.639-13.233 5.954-3.971 1.986-6.948 4.632-9.264 7.61-2.315 2.977-3.308 6.617-3.308 10.917m-96.603-90.317v37.715c5.293 4.631 10.917 8.601 17.203 12.571 5.955 3.64 12.241 6.948 19.188 9.263 6.617 2.316 14.226 3.309 22.828 3.309v5.624c-8.933 0-17.204-1.323-24.151-3.308-6.948-2.316-13.564-4.963-19.85-8.601-6.286-3.64-11.248-6.948-15.218-9.926v63.52h63.189v6.286h-80.062v-84.032c-4.963-4.3-9.925-8.601-14.887-12.571-4.963-3.97-9.925-7.61-14.888-10.918s-9.925-5.955-14.557-7.609c-4.631-1.985-9.594-2.646-14.225-2.646-5.955 0-11.911 0.992-18.196 3.308-5.955 2.646-11.249 6.286-16.211 11.248-4.963 4.963-8.933 11.248-11.91 18.858-3.308 7.609-4.632 16.872-4.632 27.458 0 10.587 1.655 19.52 5.624 27.46 3.97 7.94 8.933 13.895 15.219 18.196 6.286 4.3 12.903 6.616 20.511 6.616 8.602 0 16.211-2.316 23.159-6.285 7.278-4.302 13.233-10.918 18.526-19.519l13.234 8.601c-6.286 7.61-13.895 13.564-22.166 17.535-8.602 4.3-17.865 6.285-27.79 6.285-11.579 0-22.497-2.977-32.091-8.601-9.594-5.625-17.203-13.234-22.828-22.828-5.954-9.594-8.601-20.181-8.601-31.76s2.647-22.166 8.601-31.76c5.625-9.594 13.234-17.204 22.828-23.158 9.594-5.625 20.512-8.602 32.091-8.602 6.617 0 12.903 0.992 18.527 2.977 5.955 1.985 11.579 4.632 16.872 7.94 5.294 2.978 10.587 6.617 15.55 10.587 5.293 3.97 9.262 7.278 12.24 10.256v-29.775h84.032v6.286zm-173.36 116.45v-101.57l-71.46 101.57h-19.85v-122.74h8.932v108.51l76.092-108.51h15.218v122.74zm-182.62-84.693 28.452 71.46 26.466-71.46zm69.144-38.046h17.865l-45.324 122.74h-16.873l-49.294-122.74h8.933l12.902 31.76h59.881zm-168.72 61.866v54.587h15.88c11.249 0 19.85-1.985 26.136-6.617 5.955-4.3 8.932-10.255 8.932-18.195 0-7.279-1.653-12.903-4.962-17.203-3.308-4.301-7.94-7.61-13.564-9.595-5.293-1.984-11.58-2.977-18.858-2.977zm53.595-61.866h19.519l-37.384 56.903c9.925 1.654 17.534 5.294 23.489 11.58 5.956 5.955 8.933 13.233 8.933 21.504 0 7.278-2.316 13.564-6.617 18.527-4.301 4.631-10.587 8.27-18.196 10.586-7.609 2.315-16.541 3.639-26.466 3.639h-33.745v-122.74h16.872v55.58h17.204zm-75.76 116.45v6.286h-80.062v-122.74h16.872v68.151h59.219v6.287h-59.219v42.015z" clip-path="url(#clipPath76)" fill="currentColor"/>
</svg>
