<svg version="1.1" viewBox="0 0 1531 123" xmlns="http://www.w3.org/2000/svg">
 <defs>
  <clipPath id="clipPath24">
   <path transform="translate(-1472.4 -784.83)" d="m0 1559.1h1559.1v-1559.1h-1559.1z"/>
  </clipPath>
 </defs>
 <path transform="matrix(1.3333 0 0 -1.3333 1483.4 97.569)" d="m0 0c-3.83 0-7.459 0.806-11.088 2.218-3.83 1.411-7.056 3.629-10.08 6.652-3.226 3.024-5.645 6.855-7.459 11.492-1.815 4.838-2.823 10.281-2.823 16.934 0 6.25 1.21 11.895 3.427 16.532 2.419 4.838 5.444 8.668 9.274 11.289 3.831 2.621 8.064 3.831 12.499 3.831 3.831 0 7.459-0.605 11.29-2.017 3.629-1.612 7.056-3.83 10.08-6.854s5.443-6.855 7.257-11.491c2.017-4.839 2.823-10.282 2.823-16.733s-1.21-11.894-3.427-16.733c-2.419-4.838-5.444-8.467-9.274-11.088s-7.862-4.032-12.499-4.032m-83.06 34.877h-8.467v33.264h9.677c6.854 0 12.298-1.411 15.927-4.032 3.628-2.621 5.443-6.451 5.443-11.088s-1.008-8.064-3.024-10.685c-2.016-2.62-4.637-4.637-8.064-5.846-3.428-1.008-7.258-1.613-11.492-1.613m80.036 38.304c-7.459 0-13.91-1.814-19.958-5.443-5.847-3.427-10.484-8.064-13.911-13.91-3.427-5.847-5.04-12.298-5.04-19.354 0-5.645 1.008-10.685 3.226-15.524 2.016-4.636 4.838-8.668 8.467-12.096 3.629-3.427 7.661-6.249 12.298-8.063 4.838-2.017 9.676-2.823 14.918-2.823 5.645 0 10.886 1.008 15.725 3.225 4.838 2.017 7.459 3.428 7.661 3.629-1.815-3.427-5.847-7.056-12.097-11.289-6.451-4.234-13.103-6.25-19.958-6.25-2.016 0-4.435 0.202-7.257 0.404-2.621 0.403-5.645 1.007-8.871 2.217-3.024 1.008-6.451 2.621-9.878 4.838-3.428 2.016-6.855 4.839-10.484 8.468-3.427 3.628-6.854 8.064-10.281 13.507l-11.29 16.934c6.048 1.009 10.887 3.428 14.314 7.056 3.629 3.831 5.443 8.065 5.443 13.306 0 4.435-1.411 8.064-4.032 11.088-2.621 2.822-6.25 5.04-11.088 6.653-4.637 1.411-9.879 2.016-15.926 2.217h-20.765v-74.794h10.281v33.869h10.685l11.088-16.934c3.427-5.846 7.056-10.685 11.088-14.515 3.83-4.032 7.863-7.258 11.894-9.677 4.234-2.419 8.065-4.233 12.298-5.443 3.831-1.412 7.863-2.218 11.492-2.621 3.628-0.403 7.055-0.605 10.079-0.605 6.855 0 13.104 1.411 19.153 4.032 5.846 2.823 11.088 6.653 15.322 11.491 4.434 4.839 7.862 10.484 10.482 16.935 2.42 6.451 3.63 13.306 3.63 20.765 0 5.644-1.009 10.886-3.226 15.725-2.017 4.637-5.04 8.668-8.669 12.096-3.629 3.427-7.661 6.048-12.298 8.064-4.637 1.814-9.475 2.822-14.515 2.822m-141.93-73.181c-3.83 0-7.459 0.806-11.29 2.218-3.629 1.411-7.056 3.629-10.08 6.652-3.024 3.226-5.443 7.057-7.257 11.693-1.815 4.637-2.823 10.282-2.823 16.733 0 6.25 1.21 11.895 3.428 16.733 2.419 4.838 5.443 8.467 9.273 11.088s8.064 4.032 12.499 4.032c3.831 0 7.46-0.806 11.088-2.218 3.831-1.411 7.056-3.628 10.282-6.652 3.024-3.024 5.443-6.855 7.258-11.693 2.016-4.637 2.822-10.282 2.822-16.733 0-6.249-1.209-11.894-3.427-16.531-2.419-4.839-5.443-8.669-9.274-11.29-3.83-2.621-8.064-4.032-12.499-4.032m35.683 34.676c0 5.644-1.008 10.886-3.225 15.523-2.016 4.838-4.839 8.87-8.669 12.297-3.629 3.427-7.661 6.048-12.298 7.863-4.637 1.814-9.677 2.822-14.515 2.822-7.459 0-13.91-1.814-19.958-5.241-5.847-3.428-10.484-8.065-13.911-14.112-3.427-5.645-5.04-12.097-5.04-19.152 0-5.645 1.008-10.887 3.024-15.524 2.218-4.838 5.04-8.87 8.669-12.298 3.427-3.427 7.661-6.048 12.297-7.862 4.637-2.016 9.677-3.024 14.919-3.024 7.258 0 13.91 1.814 19.757 5.242 5.846 3.628 10.483 8.265 13.91 14.112 3.427 5.846 5.04 12.297 5.04 19.354m-127.21-33.668h-6.854v67.133h7.459c7.459 0 13.507-1.21 18.547-3.83 4.839-2.621 8.467-6.25 11.088-10.887 2.419-4.636 3.629-9.878 3.629-16.128s-1.008-11.692-2.822-16.128c-1.815-4.637-4.435-8.467-7.661-11.29-3.226-3.024-6.653-5.241-10.685-6.652-4.032-1.412-8.265-2.218-12.701-2.218m2.621 70.963h-19.757v-74.794h20.16c6.25 0 11.895 1.009 16.935 3.025s9.475 4.636 13.104 8.064c3.629 3.427 6.451 7.459 8.265 11.894 2.016 4.637 3.024 9.475 3.024 14.516 0 5.241-1.008 10.079-2.822 14.515-2.016 4.435-4.838 8.467-8.467 11.894s-7.863 6.048-13.104 8.064c-5.242 1.815-10.887 2.822-17.338 2.822m-27.418 0-23.385-37.699-23.991 37.699h-10.886l27.216-43.142v-31.652h10.281v31.652l26.612 43.142zm-80.035-70.963v70.963h-10.282v-74.794h46.368v3.831zm-52.417-1.008c-3.628 0-7.459 0.806-11.088 2.218-3.628 1.411-7.056 3.629-10.079 6.652-3.024 3.226-5.444 7.057-7.46 11.693-1.814 4.637-2.62 10.282-2.62 16.733 0 6.25 1.007 11.895 3.427 16.733 2.217 4.838 5.241 8.467 9.072 11.088 3.83 2.621 8.064 4.032 12.701 4.032 3.628 0 7.459-0.806 11.088-2.218 3.628-1.411 7.056-3.628 10.08-6.652s5.443-6.855 7.459-11.693c1.814-4.637 2.822-10.282 2.822-16.733 0-6.249-1.209-11.894-3.628-16.531-2.218-4.839-5.242-8.669-9.073-11.29-3.83-2.621-8.064-4.032-12.701-4.032m35.886 34.676c0 5.644-1.21 10.886-3.226 15.523-2.016 4.838-5.04 8.87-8.669 12.297s-7.661 6.048-12.499 7.863c-4.637 1.814-9.475 2.822-14.515 2.822-7.258 0-13.911-1.814-19.757-5.241-5.847-3.428-10.484-8.065-13.911-14.112-3.427-5.645-5.04-12.097-5.04-19.152 0-5.645 1.008-10.887 3.024-15.524 2.016-4.838 4.839-8.87 8.467-12.298 3.629-3.427 7.863-6.048 12.5-7.862 4.637-2.016 9.676-3.024 14.717-3.024 7.459 0 13.91 1.814 19.757 5.242 6.047 3.628 10.684 8.265 13.91 14.112 3.427 5.846 5.242 12.297 5.242 19.354m-112.9 0.201h-8.266v33.264h9.879c6.854 0 12.096-1.21 15.725-4.032 3.629-2.621 5.443-6.25 5.443-11.088 0-4.435-1.008-7.863-3.024-10.483-2.016-2.621-4.637-4.637-8.064-5.847-3.427-1.209-7.258-1.814-11.693-1.814m33.264 17.136c0 4.435-1.411 8.266-4.032 11.29-2.621 2.822-6.249 5.04-10.886 6.451-4.839 1.411-10.08 2.217-16.128 2.217h-20.765v-74.794h10.281v33.869h14.516c8.87 0.404 15.523 2.42 20.16 6.452 4.637 3.83 6.854 8.669 6.854 14.515m-122.98-20.765c-3.226 0-6.25-0.806-8.871-2.217-2.621-1.412-5.241-3.226-7.66-5.444-2.42-2.217-3.831-3.628-4.234-4.233l17.942 44.553 13.507-36.288v-0.202c-0.201 0-1.209 0.606-2.822 1.614-2.419 1.411-5.04 2.217-7.862 2.217m-5.242 40.723-24.999-62.496c-1.814-1.612-3.83-3.225-5.846-4.637-2.016-1.411-4.435-2.62-6.653-3.427-2.217-0.806-4.838-1.209-7.459-1.209-3.629 0-7.459 0.604-11.088 2.016-3.629 1.612-7.056 3.83-10.08 6.854s-5.645 6.855-7.459 11.491c-1.815 4.839-2.823 10.282-2.823 16.733s1.21 11.895 3.428 16.733c2.419 4.838 5.443 8.467 9.273 11.088 3.831 2.621 8.064 4.032 12.701 4.032 5.04 0 9.677-1.209 14.112-3.83 4.234-2.621 8.064-6.653 11.29-11.895l8.064 5.242c-4.032 4.637-8.467 8.265-13.709 10.685-5.04 2.62-10.685 3.83-16.733 3.83-7.258 0-13.709-1.814-19.555-5.241-5.847-3.428-10.685-8.065-14.112-13.911s-5.242-12.298-5.242-19.353c0-7.057 1.815-13.508 5.242-19.354 3.427-5.847 8.265-10.484 14.112-13.911 5.846-3.629 12.297-5.443 19.555-5.443 4.032 0 7.661 0.605 11.088 1.613 3.226 1.21 6.25 2.621 8.871 4.233 2.822 1.815 5.241 3.629 7.66 5.847 2.218 2.016 4.436 4.032 6.452 6.25 2.016 2.016 4.032 4.031 6.048 5.846 2.217 1.814 4.233 3.225 6.249 4.233 2.016 1.21 4.234 1.614 6.653 1.614 2.218 0 4.435-0.606 6.451-1.815 2.016-1.411 4.032-3.226 5.645-5.241 1.815-2.218 3.427-4.637 4.839-7.258l5.04-14.113h10.886l-27.619 74.794zm-148.18-15.926c0 2.621 0.807 5.04 2.621 7.056 1.815 1.815 4.234 3.428 6.855 4.435 2.822 1.008 5.644 1.412 8.467 1.412 4.032 0 7.863-0.605 11.29-2.218 3.427-1.411 6.451-3.427 9.072-5.846 2.419-2.218 4.435-5.04 6.048-8.266l8.265 5.846c-3.83 4.839-8.467 8.467-14.313 10.887-6.048 2.419-11.492 3.83-16.935 3.83-6.25 0-11.491-1.008-15.725-3.024-4.435-1.814-7.862-4.435-10.281-7.459-2.42-3.226-3.629-6.653-3.629-10.281 0-3.226 1.008-6.049 2.621-8.266 1.814-2.42 4.032-4.234 6.854-5.847 2.822-1.814 5.847-3.024 9.274-4.233 3.427-1.21 6.854-2.218 10.483-3.428 3.226-0.806 6.25-1.814 9.274-2.822 2.822-1.008 5.443-2.217 7.862-3.427 2.218-1.21 4.032-2.621 5.443-4.435 1.21-1.613 1.815-3.629 1.815-5.847 0-2.621-1.008-5.04-2.823-7.056-2.016-2.016-4.838-3.83-8.064-5.04-3.225-1.411-6.854-2.016-10.685-2.016-5.04 0-9.676 1.411-14.112 3.83-4.435 2.621-8.265 6.855-11.491 12.701l-8.064-6.048c3.629-4.636 8.669-8.265 14.717-10.684 6.249-2.622 12.096-3.831 17.337-3.831 6.049 0 11.492 1.008 16.33 2.823 4.637 1.814 8.468 4.233 11.29 7.459 2.621 3.024 4.032 6.653 4.032 10.281 0 3.428-0.807 6.048-2.621 8.467-1.613 2.218-3.83 4.234-6.451 5.645-2.823 1.613-5.847 3.024-9.274 4.234-3.225 1.21-6.652 2.217-10.281 3.226-3.226 1.007-6.452 2.015-9.476 3.024-3.024 1.008-5.644 2.217-8.064 3.628-2.419 1.21-4.233 2.823-5.644 4.637-1.412 1.815-2.017 4.032-2.017 6.653m-58.867-55.037v22.982c3.226 2.823 6.653 5.242 10.483 7.661 3.629 2.218 7.46 4.234 11.693 5.645 4.032 1.411 8.669 2.016 13.911 2.016v3.428c-5.444 0-10.484-0.807-14.717-2.016-4.234-1.412-8.266-3.025-12.096-5.242-3.831-2.218-6.855-4.234-9.274-6.048v38.707h38.506v3.83h-48.788v-51.206c-3.024-2.621-6.048-5.242-9.072-7.661s-6.048-4.637-9.072-6.653-6.048-3.629-8.87-4.637c-2.823-1.209-5.846-1.612-8.669-1.612-3.629 0-7.257 0.604-11.088 2.016-3.629 1.612-6.854 3.83-9.878 6.854s-5.444 6.855-7.258 11.491c-2.016 4.637-2.822 10.282-2.822 16.733s1.008 11.895 3.427 16.733 5.443 8.467 9.273 11.088c3.831 2.621 7.863 4.032 12.5 4.032 5.241 0 9.878-1.411 14.112-3.83 4.435-2.621 8.064-6.653 11.289-11.895l8.064 5.242c-3.83 4.637-8.467 8.265-13.507 10.685-5.242 2.62-10.886 3.83-16.934 3.83-7.056 0-13.709-1.814-19.556-5.241-5.846-3.428-10.483-8.065-13.91-13.911-3.629-5.846-5.242-12.298-5.242-19.353 0-7.057 1.613-13.508 5.242-19.354 3.427-5.847 8.064-10.484 13.91-14.112 5.847-3.428 12.5-5.242 19.556-5.242 4.032 0 7.862 0.605 11.289 1.814 3.629 1.21 7.056 2.823 10.282 4.839 3.226 1.814 6.451 4.032 9.475 6.451 3.226 2.419 5.645 4.435 7.459 6.25v-18.145h51.207v3.831zm-105.64 70.963v-61.891l-43.546 61.891h-12.095v-74.794h5.443v66.126l46.368-66.126h9.273v74.794zm-111.28-51.609 17.337 43.545 16.128-43.545zm42.134-23.185h10.887l-27.62 74.794h-10.281l-30.039-74.794h5.443l7.863 19.354h36.49zm-102.82 37.7v33.264h9.677c6.854 0 12.096-1.21 15.926-4.032 3.629-2.621 5.443-6.25 5.443-11.088 0-4.435-1.008-7.863-3.024-10.483-2.016-2.621-4.838-4.637-8.265-5.847-3.226-1.209-7.056-1.814-11.492-1.814zm32.659-37.7h11.895l-22.781 34.676c6.048 1.008 10.684 3.226 14.313 7.056 3.629 3.629 5.444 8.064 5.444 13.104 0 4.435-1.412 8.266-4.032 11.29-2.621 2.822-6.452 5.04-11.089 6.451-4.636 1.411-10.079 2.217-16.128 2.217h-20.563v-74.794h10.282v33.869h10.483zm-46.166 70.964v3.83h-48.788v-74.794h10.282v41.53h36.086v3.831h-36.086v25.603z" clip-path="url(#clipPath24)" fill="currentColor"/>
</svg>
