<svg version="1.1" viewBox="0 0 200 200" xmlns="http://www.w3.org/2000/svg">
 <defs>
  <clipPath id="clipPath26">
   <path transform="translate(0 2.5e-5)" d="m0 1559.1h1559.1v-1559.1h-1559.1z"/>
  </clipPath>
 </defs>
 <path transform="matrix(.77988 0 0 -.77988 -39.134 706.93)" d="m122.74 773.34h20.92v20.91h-20.92zm0-52.29h20.92v20.92h-20.92zm0 52.29h20.92v20.91h-20.92zm0-52.29h20.92v20.92h-20.92zm0 52.29h20.92v20.91h-20.92zm0-52.29h20.92v20.92h-20.92zm41.83 62.75c0 3.13 2.09 5.22 5.23 5.22h15.68v-10.46h-15.68c-3.14 0-5.23 2.1-5.23 5.24m101.71-43.5c0.03-5.22-2.67-10.08-7.12-12.81-10.19-6.31-33.32-16.89-73.68-16.9v-0.1h-15.68c-3.14 0-5.23 1.68-5.23 4.21 0 2.52 2.09 4.2 5.23 4.2h15.68v-0.09c38.34 0 59.91 9.82 69.36 15.67 2.01 1.25 3.23 3.45 3.21 5.82v2.77c0.01 0.11 0.02 0.21 0.02 0.32 0.06 2.7-2.08 4.94-4.78 5h-67.85v8.22h64.67v12.19c-0.06 18.56-8.08 36.22-22.02 48.48v-19.26c0-2.27-1.84-4.11-4.11-4.11s-4.11 1.84-4.11 4.11v25.42c-3.52 2.26-7.26 4.16-11.15 5.67v-44.36c0-2.27-1.84-4.11-4.11-4.11s-4.11 1.84-4.11 4.11v48.86c0 4.15-1.68 7.9-4.4 10.62s-6.47 4.4-10.62 4.4h-15.68c-3.14 0-5.23 1.61-5.23 4.04 0 2.44 2.09 4.05 5.23 4.05h15.64v0.14c10.98 0.03 20.76-7.77 22.85-18.95 29.79-9.89 49.94-37.71 50.04-69.11v-13.22c4.93-2.18 8.06-7.12 7.95-12.51zm-112.69 108.33-20.91-31.37c-1.05-1.05-2.62-2.09-4.71-2.09-1.57 0-2.61 0.52-3.66 1.56l-10.46 10.46c-2.09 2.09-2.09 5.23 0 7.32 2.1 2.09 5.23 2.09 7.32 0l5.76-5.75 17.25 26.14c2.09 2.09 5.23 2.62 7.84 1.05 2.62-1.57 3.14-4.71 1.57-7.32m0.52-75.29c0-5.75-4.7-10.46-10.45-10.46h-20.92c-5.75 0-10.45 4.71-10.45 10.46v20.91c0 5.75 4.7 10.46 10.45 10.46h20.92c5.75 0 10.45-4.71 10.45-10.46zm0-52.29c0-5.75-4.7-10.46-10.45-10.46h-20.92c-5.75 0-10.45 4.71-10.45 10.46v20.92c0 5.75 4.7 10.45 10.45 10.45h20.92c5.75 0 10.45-4.7 10.45-10.45zm24.3 185.41c-70.82 0-128.23-57.41-128.23-128.23 0-70.81 57.41-128.22 128.23-128.22 70.81 0 128.22 57.41 128.22 128.22 0 70.82-57.41 128.23-128.22 128.23m-55.67-185.41h20.92v20.92h-20.92zm0 52.29h20.92v20.91h-20.92zm0-52.29h20.92v20.92h-20.92zm0 52.29h20.92v20.91h-20.92zm0 0h20.92v20.91h-20.92zm0 0h20.92v20.91h-20.92z" clip-path="url(#clipPath26)" fill="currentColor"/>
</svg>
